<?xml version="1.0" encoding="UTF-8" standalone="no"?>
<!-- Generator: Gravit.io -->
<svg xmlns="http://www.w3.org/2000/svg" xmlns:xlink="http://www.w3.org/1999/xlink" style="isolation:isolate" viewBox="260.821 417.689 319.258 151.841" width="319.258" height="151.841"><g id="Group"><path d=" M 572.587 530.069 C 572.587 546.052 559.901 562.035 544.617 562.035 L 297.282 562.035 C 282.797 562.035 267.813 547.55 268.013 531.268 C 268.313 513.787 268.013 462.042 268.013 452.352 C 268.013 442.663 277.403 425.281 295.084 425.281 L 542.919 425.281 C 556.205 425.281 572.387 436.469 572.387 455.149 L 572.387 530.069 L 572.587 530.069 Z  M 544.617 417.689 L 295.184 417.689 C 273.807 417.689 260.821 437.268 260.821 451.154 L 260.821 528.571 C 260.821 551.147 277.103 569.827 294.884 569.527 L 544.218 569.527 C 557.204 569.527 580.079 558.639 580.079 528.271 L 580.079 457.846 C 580.079 431.275 559.601 417.689 544.617 417.689 Z " fill="rgb(3,78,162)"/><path d=" M 558.103 529.37 C 558.103 538.96 550.91 546.851 542.42 546.851 L 299.679 546.851 C 291.288 546.851 282.697 538.26 282.697 529.869 L 282.697 455.349 C 282.697 449.056 289.79 439.067 299.38 439.067 L 542.719 439.067 C 549.612 439.067 558.103 447.158 558.103 455.948 L 558.103 529.37 L 558.103 529.37 Z  M 565.795 457.747 C 565.695 444.561 556.305 431.874 540.921 432.274 C 532.73 432.474 297.382 432.274 297.382 432.274 C 285.395 431.974 275.505 444.76 275.505 453.451 C 275.505 460.643 275.305 521.578 275.505 531.068 C 275.805 542.756 287.592 554.543 297.082 554.543 L 543.618 554.543 C 552.509 554.543 565.395 544.154 565.495 531.068 C 565.595 520.28 565.795 467.736 565.795 457.747 Z " fill="rgb(3,78,162)"/><path d=" M 304.774 513.387 C 305.773 524.775 317.56 533.166 328.948 533.266 L 328.948 519.98 C 314.264 518.581 318.359 499.202 317.76 488.913 C 317.66 488.813 326.75 488.913 327.35 488.913 C 328.948 484.518 330.746 480.522 331.845 476.027 L 318.259 476.027 C 318.359 470.932 318.659 467.536 318.259 463.341 L 304.674 463.341 L 304.774 513.387 Z " fill="rgb(3,78,162)"/><path d=" M 343.732 469.034 C 347.928 469.034 351.424 465.638 351.424 461.343 C 351.424 457.147 348.028 453.651 343.732 453.651 C 339.537 453.651 336.04 457.047 336.04 461.343 C 336.04 465.538 339.437 469.034 343.732 469.034 Z " fill="rgb(3,78,162)"/><path d=" M 385.288 468.435 C 389.483 468.435 392.979 465.039 392.979 460.743 C 392.979 456.448 389.583 453.052 385.288 453.052 C 381.092 453.052 377.596 456.448 377.596 460.743 C 377.596 464.939 380.992 468.435 385.288 468.435 Z " fill="rgb(3,78,162)"/><path d=" M 428.941 522.078 C 420.05 522.078 412.758 514.785 412.758 505.895 C 412.758 497.005 420.05 489.712 428.941 489.712 C 437.931 489.712 445.124 496.905 445.124 505.895 C 445.124 514.885 437.831 522.078 428.941 522.078 Z  M 413.657 483.919 L 413.657 483.919 L 413.657 483.919 Z  M 454.514 490.611 C 450.318 483.219 443.326 479.024 435.234 477.026 C 428.042 475.228 418.552 477.026 413.657 483.619 C 413.358 480.422 413.557 454.85 413.557 454.45 L 399.672 454.45 L 399.672 503.198 L 399.672 533.965 L 413.557 533.965 C 413.557 532.167 413.358 529.47 413.657 527.672 L 413.657 527.672 C 417.853 534.964 427.542 535.064 434.535 534.265 C 442.227 533.366 448.32 528.471 453.015 522.277 C 460.008 513.087 460.307 500.601 454.514 490.611 Z " fill="rgb(3,78,162)"/><path d=" M 463.504 476.127 L 477.489 475.927 L 477.589 483.019 C 477.589 483.019 482.983 472.73 494.471 475.228 L 489.676 489.113 C 489.676 489.113 478.188 487.914 478.188 498.203 L 478.188 533.166 L 463.504 533.166 L 463.504 476.127 Z " fill="rgb(3,78,162)"/><path d=" M 525.138 527.971 L 525.138 528.071 L 525.138 527.971 Z  M 512.052 522.977 C 506.258 522.977 501.463 518.282 501.463 512.388 C 501.463 506.594 506.158 501.799 512.052 501.799 C 517.846 501.799 522.641 506.494 522.641 512.388 C 522.641 518.182 517.846 522.977 512.052 522.977 Z  M 536.026 506.195 C 536.026 499.202 538.624 487.814 531.831 481.022 C 523.74 473.03 510.953 473.63 501.264 477.326 C 499.366 481.321 497.368 485.217 495.869 489.413 C 502.163 486.216 509.355 485.717 516.347 486.616 C 520.843 487.115 524.938 491.111 523.839 496.006 L 523.939 496.305 C 519.045 490.611 513.051 490.312 507.357 490.711 C 493.672 491.81 485.48 507.393 490.475 520.08 C 492.673 525.774 497.168 530.169 502.562 532.566 C 509.455 535.563 518.945 534.564 525.238 528.171 C 525.238 529.17 525.338 532.666 525.338 533.865 C 527.136 533.965 534.328 534.065 536.126 533.865 C 536.126 524.675 536.026 515.485 536.026 506.195 Z " fill="rgb(3,78,162)"/><rect x="337.539" y="476.227" width="12.686" height="57.538" transform="matrix(1,0,0,1,0,0)" fill="rgb(3,78,162)"/><rect x="379.094" y="475.627" width="12.686" height="58.238" transform="matrix(1,0,0,1,0,0)" fill="rgb(3,78,162)"/><rect x="357.617" y="453.851" width="12.686" height="79.914" transform="matrix(1,0,0,1,0,0)" fill="rgb(3,78,162)"/></g></svg>